<?xml version="1.0" encoding="UTF-8" standalone="no"?>
<!-- Created with Inkscape (http://www.inkscape.org/) -->

<svg
   xmlns:dc="http://purl.org/dc/elements/1.1/"
   xmlns:cc="http://creativecommons.org/ns#"
   xmlns:rdf="http://www.w3.org/1999/02/22-rdf-syntax-ns#"
   xmlns:svg="http://www.w3.org/2000/svg"
   xmlns="http://www.w3.org/2000/svg"
   xmlns:sodipodi="http://sodipodi.sourceforge.net/DTD/sodipodi-0.dtd"
   xmlns:inkscape="http://www.inkscape.org/namespaces/inkscape"
   id="svg3157"
   inkscape:version="0.91 r13725"
   viewBox="0 0 162.48117 162.48117"
   version="1.1"
   sodipodi:docname="Logo.svg"
   width="162.48117"
   height="162.48117"
   inkscape:export-filename="C:\Users\Eric\SkyDrive\Kanu_s.a.M\Dokumentation\Logo\ic_launcher.png"
   inkscape:export-xdpi="598.22314"
   inkscape:export-ydpi="598.22314">
  <defs
     id="defs7" />
  <sodipodi:namedview
     id="base"
     bordercolor="#666666"
     inkscape:pageshadow="2"
     inkscape:window-y="467"
     pagecolor="#ffffff"
     inkscape:zoom="2.8"
     inkscape:window-width="1366"
     inkscape:window-maximized="1"
     inkscape:window-x="1272"
     showgrid="false"
     borderopacity="1.0"
     inkscape:current-layer="layer1"
     inkscape:cx="46.390913"
     inkscape:cy="68.209269"
     inkscape:window-height="705"
     inkscape:pageopacity="0.0"
     inkscape:document-units="px"
     fit-margin-top="0"
     fit-margin-left="0"
     fit-margin-right="0"
     fit-margin-bottom="0"
     showguides="true"
     inkscape:guide-bbox="true">
    <sodipodi:guide
       position="44.107143,78.393"
       orientation="-0.70710678,0.70710678"
       id="guide4150"
       inkscape:label=""
       inkscape:color="rgb(0,0,255)" />
  </sodipodi:namedview>
  <g
     id="layer1"
     inkscape:label="Capa 1"
     inkscape:groupmode="layer"
     transform="translate(-245.60885,-122.52995)">
    <path
       id="path3112"
       d="m 383.47165,171.32486 -13.125,7.875 c 0,0 -1.4989,-0.86191 -2.7188,-0.6875 -2.1092,0.30157 -4.666,1.3796 -5.5625,3.3125 -0.3685,0.79452 0,2.625 0,2.625 l -8.25,5.25 -0.375,-3 c 0,0 1.3342,-10.369 -2.0625,-13.312 -3.382,-2.9307 -9.4762,-3.5845 -11.812,3.1875 -1.1943,3.4619 0.78179,10.201 3,10.875 l 2.625,3.7812 -6,4.5 -8.2812,7.875 -7.875,5.25 c 0,0 -1.5166,-0.66661 -3.0625,-0.40625 -1.7705,0.29818 -3.2385,0.7368 -4,2.3438 -0.53579,1.1306 0.125,2.4062 0.125,2.4062 l -16.625,10.594 c -38.24416,-1.17433 -26.80325,31.21512 1.58056,3.9378 9.5301,4.627 12.14364,13.2532 22.35764,13.7812 20.214,1.5302 43.913,-2.4517 66.438,-11.625 5.9125,-2.408 13.14632,-11.16588 2.96446,-14.1026 -8.61066,-0.28282 -16.91242,1.45888 -26.18346,1.0716 l -0.34375,-12.312 c 0,0 3.9604,-3.8081 6.5312,-5.125 2.0861,-1.0686 5.0048,-1.0908 6.1562,-3 0.41206,-0.68325 0.23374,-1.6434 0,-2.4062 -1.3622,-4.446 -7.5625,-10.469 -7.5625,-10.469 l 0.0625,-1.9688 14.25,-9.125 c 0,0 7.6076,-0.50177 11.344,-2.125 24.30701,-19.78244 -8.3812,-27.22287 -13.59535,0.99855 z m -21.0308,15.468 3.7188,1.1875 2.375,-0.125 2.2812,2.6562 0.65625,3.3125 -4.25,-0.28125 -3.8438,-1.9688 -5.5938,0.375 -0.125,-1.4375 z m -23.625,19.625 -0.125,13.156 c 0,0 -14.512,-0.34089 -21.094,2.25 -3.0871,1.2152 -7.9688,5.9688 -7.9688,5.9688 -3.6453,0.61063 -7.86461,1.72271 -8.34821,-0.52679 2.5469,-3.4967 14.11621,-10.20071 17.06721,-12.47271 l 3.625,-0.8125 c 3.1002,0.49708 2.2626,0.25144 5.3125,0 3.3931,-0.64784 7.8201,-4.3704 11.531,-7.5625 z"
       sodipodi:nodetypes="ccsscccsscccccssccccscccssscccccccccccccccccsccccccc"
       style="fill:#1a1a1a;stroke:#000000;stroke-width:1px"
       inkscape:connector-curvature="0" />
    <path
       style="opacity:1;fill:#0000ff;fill-opacity:1;stroke:#0000ff;stroke-width:0.75043428;stroke-miterlimit:4;stroke-dasharray:none;stroke-dashoffset:0;stroke-opacity:1"
       id="path4135"
       sodipodi:type="arc"
       sodipodi:cx="297.59448"
       sodipodi:cy="353.09564"
       sodipodi:rx="9.6065025"
       sodipodi:ry="12.681191"
       sodipodi:start="3.1415927"
       sodipodi:end="0"
       d="m 287.98798,353.09564 a 9.6065025,12.681191 0 0 1 9.6065,-12.68119 9.6065025,12.681191 0 0 1 9.6065,12.68119"
       sodipodi:open="true"
       transform="matrix(0.84270781,-0.5383712,0.27043379,0.96273858,0,0)" />
    <path
       style="fill:#0000ff;fill-opacity:1;fill-rule:evenodd;stroke:#0000ff;stroke-width:2.11337471;stroke-linecap:butt;stroke-linejoin:miter;stroke-miterlimit:4;stroke-dasharray:none;stroke-opacity:1"
       d="m 246.99782,236.73161 c 0,0 5.80441,-10.29274 10.08368,-10.33892 5.06696,-0.0547 6.84638,11.48867 12.09423,11.98264 6.06629,0.57101 10.06036,-16.93371 16.93756,-11.93221 3.68584,2.68057 3.56819,11.83702 10.10638,12.05397 3.02871,0.10049 7.06248,-4.09605 7.06248,-4.09605"
       id="path4146"
       inkscape:connector-curvature="0"
       sodipodi:nodetypes="casssc" />
    <path
       style="fill:#0000ff;fill-opacity:1;fill-rule:evenodd;stroke:#0000ff;stroke-width:2.11337471;stroke-linecap:butt;stroke-linejoin:miter;stroke-miterlimit:4;stroke-dasharray:none;stroke-opacity:1"
       d="m 298.99881,239.48361 c 0,0 5.80441,-10.29273 10.08368,-10.33891 5.06696,-0.0547 6.84637,11.48867 12.09422,11.98264 6.0663,0.571 10.06037,-16.93372 16.93756,-11.93221 3.68585,2.68056 3.56819,11.83702 10.10639,12.05396 3.02871,0.1005 7.43942,-7.91421 7.43942,-7.91421"
       id="path4146-6"
       inkscape:connector-curvature="0"
       sodipodi:nodetypes="casssc" />
    <path
       style="fill:#0000ff;fill-opacity:1;fill-rule:evenodd;stroke:#0000ff;stroke-width:2.11337471;stroke-linecap:butt;stroke-linejoin:miter;stroke-miterlimit:4;stroke-dasharray:none;stroke-opacity:1"
       d="m 351.02799,240.33591 c 0,0 5.80441,-10.29274 10.08368,-10.33892 5.06696,-0.0547 6.84637,11.48867 12.09422,11.98264 6.0663,0.57101 10.06037,-16.93371 16.93756,-11.9322 3.68584,2.68056 3.56819,11.83701 10.10638,12.05396 3.02872,0.10049 5.98734,-7.03034 5.98734,-7.03034"
       id="path4146-1"
       inkscape:connector-curvature="0"
       sodipodi:nodetypes="casssc" />
    <rect
       style="opacity:1;fill:#0000ff;fill-opacity:1;stroke:#0000ff;stroke-width:5.19576406;stroke-miterlimit:4;stroke-dasharray:none;stroke-dashoffset:0;stroke-opacity:1"
       id="rect4177"
       width="158.01854"
       height="45.857716"
       x="248.0065"
       y="236.60646" />
    <text
       xml:space="preserve"
       style="font-style:normal;font-variant:normal;font-weight:normal;font-stretch:normal;font-size:46.95325089px;line-height:125%;font-family:'Latin Modern Roman';-inkscape-font-specification:'Latin Modern Roman, Normal';text-align:start;letter-spacing:0px;word-spacing:0px;writing-mode:lr-tb;text-anchor:start;fill:#000000;fill-opacity:1;stroke:none;stroke-width:1px;stroke-linecap:butt;stroke-linejoin:miter;stroke-opacity:1"
       x="253.45839"
       y="207.6881"
       id="text4137"
       sodipodi:linespacing="125%"
       transform="matrix(0.99926906,-0.002434,-5.0111992e-4,1.0007327,0,0)"><tspan
         sodipodi:role="line"
         id="tspan4139"
         x="253.45839"
         y="207.6881"
         style="font-style:normal;font-variant:normal;font-weight:300;font-stretch:extra-condensed;font-size:99.96949768px;font-family:'Bodoni MT';-inkscape-font-specification:'Bodoni MT Light Extra-Condensed'">K</tspan></text>
    <text
       xml:space="preserve"
       style="font-style:normal;font-variant:normal;font-weight:300;font-stretch:extra-condensed;font-size:15.73351192px;line-height:125%;font-family:'Bodoni MT';-inkscape-font-specification:'Bodoni MT, Light Extra-Condensed';text-align:start;letter-spacing:0px;word-spacing:0px;writing-mode:lr-tb;text-anchor:start;fill:#000000;fill-opacity:1;stroke:none;stroke-width:1px;stroke-linecap:butt;stroke-linejoin:miter;stroke-opacity:1"
       x="283.69122"
       y="189.9794"
       id="text4154"
       sodipodi:linespacing="125%"><tspan
         sodipodi:role="line"
         id="tspan4156"
         x="283.69122"
         y="189.9794"
         style="font-size:77.23724365px">A</tspan></text>
    <text
       xml:space="preserve"
       style="font-style:normal;font-variant:normal;font-weight:300;font-stretch:extra-condensed;font-size:15.77096081px;line-height:125%;font-family:'Bodoni MT';-inkscape-font-specification:'Bodoni MT, Light Extra-Condensed';text-align:start;letter-spacing:0px;word-spacing:0px;writing-mode:lr-tb;text-anchor:start;fill:#000000;fill-opacity:1;stroke:none;stroke-width:1px;stroke-linecap:butt;stroke-linejoin:miter;stroke-opacity:1"
       x="306.14899"
       y="175.56007"
       id="text4158"
       sodipodi:linespacing="125%"><tspan
         sodipodi:role="line"
         id="tspan4160"
         x="306.14899"
         y="175.56007"
         style="font-size:57.34894943px">N</tspan></text>
    <text
       xml:space="preserve"
       style="font-style:normal;font-variant:normal;font-weight:300;font-stretch:extra-condensed;font-size:14.78721046px;line-height:125%;font-family:'Bodoni MT';-inkscape-font-specification:'Bodoni MT, Light Extra-Condensed';text-align:start;letter-spacing:0px;word-spacing:0px;writing-mode:lr-tb;text-anchor:start;fill:#000000;fill-opacity:1;stroke:none;stroke-width:1px;stroke-linecap:butt;stroke-linejoin:miter;stroke-opacity:1"
       x="324.16046"
       y="163.17097"
       id="text4162"
       sodipodi:linespacing="125%"><tspan
         sodipodi:role="line"
         id="tspan4164"
         x="324.16046"
         y="163.17097"
         style="font-size:40.32875824px">U</tspan></text>
    <rect
       style="opacity:1;fill:#0000ff;fill-opacity:1;stroke:#0000ff;stroke-width:3.84771228;stroke-miterlimit:4;stroke-dasharray:none;stroke-dashoffset:0;stroke-opacity:1"
       id="rect4179"
       width="9.9911222"
       height="1.909902"
       x="278.11523"
       y="233.35915" />
    <text
       xml:space="preserve"
       style="font-style:normal;font-variant:normal;font-weight:normal;font-stretch:normal;font-size:54.88528824px;line-height:125%;font-family:'Latin Modern Roman';-inkscape-font-specification:'Latin Modern Roman, Normal';text-align:start;letter-spacing:0px;word-spacing:0px;writing-mode:lr-tb;text-anchor:start;fill:#ffffff;fill-opacity:1;stroke:none;stroke-width:1px;stroke-linecap:butt;stroke-linejoin:miter;stroke-opacity:1;"
       x="142.02496"
       y="513.54767"
       id="text4137-2"
       sodipodi:linespacing="125%"
       transform="matrix(1.8828314,0.00259063,-0.01474801,0.53109471,0,0)"><tspan
         sodipodi:role="line"
         id="tspan4139-6"
         x="142.02496"
         y="513.54767"
         style="font-style:normal;font-variant:normal;font-weight:300;font-stretch:extra-condensed;font-family:'Bodoni MT';-inkscape-font-specification:'Bodoni MT Light Extra-Condensed';fill:#ffffff;fill-opacity:1;">s.a.M.</tspan></text>
  </g>
  <metadata
     id="metadata6">
    <rdf:RDF>
      <cc:Work>
        <dc:format>image/svg+xml</dc:format>
        <dc:type
           rdf:resource="http://purl.org/dc/dcmitype/StillImage" />
        <cc:license
           rdf:resource="http://creativecommons.org/publicdomain/zero/1.0/" />
        <dc:publisher>
          <cc:Agent
             rdf:about="http://openclipart.org/">
            <dc:title>Openclipart</dc:title>
          </cc:Agent>
        </dc:publisher>
        <dc:title />
      </cc:Work>
      <cc:License
         rdf:about="http://creativecommons.org/publicdomain/zero/1.0/">
        <cc:permits
           rdf:resource="http://creativecommons.org/ns#Reproduction" />
        <cc:permits
           rdf:resource="http://creativecommons.org/ns#Distribution" />
        <cc:permits
           rdf:resource="http://creativecommons.org/ns#DerivativeWorks" />
      </cc:License>
    </rdf:RDF>
  </metadata>
</svg>
